<?xml version="1.0" encoding="utf-8"?>
<svg id="Layer_1" data-name="Layer 1" xmlns="http://www.w3.org/2000/svg" viewBox="0 0 779.38 659.23">
  <defs>
    <style>.cls-1{fill:none;stroke:#231f20;stroke-miterlimit:10;stroke-width:10px;}</style>
  </defs>
  <path class="cls-1" d="M 339.293 150.728 C 228.083 150.728 127.043 23.938 109.203 0.358 C 108.736 -0.254 107.782 -0.132 107.485 0.578 C 107.404 0.771 107.386 0.984 107.433 1.188 C 135.433 124.778 198.433 174.508 210.553 183.098 C 211.172 183.555 211.065 184.511 210.36 184.819 C 210.287 184.851 210.211 184.874 210.133 184.888 C 106.073 201.128 6.433 51.348 -14.457 17.808 C -14.87 17.158 -15.831 17.199 -16.188 17.881 C -16.31 18.114 -16.335 18.386 -16.257 18.638 C 26.363 157.928 136.243 256.988 156.173 274.098 C 156.754 274.602 156.572 275.547 155.845 275.799 C 155.667 275.86 155.476 275.87 155.293 275.828 C -37.017 231.988 -143.38 112.918 -170.94 78.218 C -171.43 77.629 -172.38 77.798 -172.64 78.522 C -172.74 78.779 -172.72 79.063 -172.6 79.308 C -4.947 396.838 237.013 484.388 242.923 461.598 C 248.833 438.808 279.393 327.918 339.293 296.698 C 416.993 256.208 373.053 346.478 353.643 397.098 C 334.233 447.718 292.053 552.358 263.363 599.598 C 234.673 646.838 238.053 646.008 252.363 648.538 C 266.673 651.068 317.553 646.068 358.763 636.068 C 359.22 635.955 359.536 635.539 359.523 635.068 C 359.753 577.198 385.673 528.698 385.673 528.698 C 385.673 528.698 404.233 463.698 509.673 390.328 C 615.113 316.958 472.553 246.888 472.553 246.888 C 472.553 246.888 399.993 207.228 409.273 149.008 C 418.273 92.558 475.913 54.678 524.023 65.478 C 532.023 67.278 546.733 79.358 548.493 81.328 C 560.693 94.938 600.493 103.728 600.493 103.728" style="stroke: rgb(255, 255, 255);"/>
</svg>